<svg width="84" height="31" viewBox="0 0 84 31" fill="none" xmlns="http://www.w3.org/2000/svg">
<path d="M8.41883 16.5706H7.45303V10.7223C7.45303 10.262 7.48039 9.69722 7.53237 9.03361H7.51049C7.41746 9.42613 7.33538 9.70852 7.26425 9.87795L4.45166 16.5706H3.98107L1.16301 9.92596C1.0864 9.74806 1.00432 9.45155 0.916771 9.03361H0.894883C0.924978 9.38095 0.941394 9.94856 0.941394 10.7336V16.5706H0.00842285V7.86169H1.28613L3.81691 13.9359C4.00843 14.3962 4.13429 14.7463 4.19174 14.9807H4.23278C4.4243 14.4216 4.55562 14.0658 4.6295 13.9105L7.21226 7.86169H8.42704V16.5706" fill="white"/>
<path d="M11.1058 16.5706H10.1619V10.3524H11.1058V16.5706ZM11.2645 8.1215C11.2645 8.30788 11.2043 8.46319 11.0812 8.58744C10.958 8.71169 10.813 8.77382 10.6434 8.77382C10.471 8.77382 10.326 8.71451 10.2056 8.59591C10.088 8.47731 10.0278 8.31917 10.0278 8.12432C10.0278 7.94923 10.0853 7.79957 10.2029 7.67249C10.3206 7.54542 10.4656 7.48047 10.6434 7.48047C10.8185 7.48047 10.9662 7.5426 11.0866 7.66967C11.207 7.7911 11.2645 7.94359 11.2645 8.1215Z" fill="white"/>
<path d="M16.6865 16.2854C16.2296 16.5763 15.6906 16.7231 15.0695 16.7231C14.5333 16.7231 14.0517 16.5932 13.6222 16.3306C13.1954 16.0708 12.8616 15.7009 12.6236 15.2236C12.3855 14.7464 12.2679 14.2099 12.2679 13.614C12.2679 12.5861 12.547 11.7587 13.1051 11.1375C13.6632 10.5134 14.4047 10.2028 15.3349 10.2028C15.8493 10.2028 16.3035 10.3072 16.6974 10.519V11.5385C16.2569 11.2137 15.7891 11.0527 15.2939 11.0527C14.6838 11.0527 14.1885 11.2815 13.8082 11.7418C13.4279 12.2021 13.2364 12.7951 13.2364 13.5237C13.2364 14.2494 13.417 14.8226 13.7809 15.2434C14.142 15.6642 14.629 15.876 15.2392 15.876C15.7535 15.876 16.2351 15.6981 16.6892 15.3422V16.2854" fill="white"/>
<path d="M20.8922 11.3606C20.7226 11.2278 20.4846 11.1601 20.1727 11.1601C19.7541 11.1601 19.4148 11.369 19.1549 11.7813C18.895 12.1964 18.7636 12.7358 18.7636 13.3994V16.5706H17.8197V10.3524H18.7636V11.6345H18.7855C18.9169 11.2052 19.1166 10.8664 19.3902 10.6179C19.661 10.3694 19.9757 10.2451 20.3286 10.2451C20.5749 10.2451 20.7609 10.2734 20.8922 10.3298V11.3606Z" fill="white"/>
<path d="M25.8549 13.4727C25.8549 12.6905 25.6907 12.0919 25.3624 11.6739C25.0341 11.256 24.5663 11.047 23.9561 11.047C23.3515 11.047 22.87 11.2616 22.517 11.688C22.1641 12.1144 21.989 12.7188 21.989 13.4953C21.989 14.2408 22.1668 14.8226 22.5197 15.2405C22.8754 15.6584 23.3515 15.8702 23.9561 15.8702C24.569 15.8702 25.0396 15.6641 25.3652 15.2518C25.6908 14.8395 25.8549 14.2465 25.8549 13.4727ZM26.8207 13.436C26.8207 14.4244 26.5553 15.2179 26.0245 15.8194C25.4938 16.4209 24.7824 16.7202 23.8877 16.7202C23.0177 16.7202 22.3228 16.4265 21.8029 15.842C21.2831 15.2574 21.0232 14.4865 21.0232 13.532C21.0232 12.5041 21.2886 11.6909 21.8221 11.0922C22.3556 10.4964 23.0888 10.197 24.0245 10.197C24.9 10.197 25.584 10.4851 26.0793 11.0611C26.5717 11.6429 26.8207 12.4335 26.8207 13.436Z" fill="white"/>
<path d="M31.2016 14.9074C31.2016 15.4468 31.0046 15.8845 30.6134 16.2205C30.2194 16.5565 29.6968 16.726 29.0456 16.726C28.4902 16.726 28.0032 16.6017 27.5846 16.3504V15.2801C28.0497 15.6783 28.5586 15.876 29.114 15.876C29.861 15.876 30.2358 15.5879 30.2358 15.0062C30.2358 14.7718 30.1619 14.5798 30.0169 14.433C29.8719 14.2861 29.5409 14.0856 29.021 13.8343C28.4984 13.5999 28.1318 13.3486 27.9157 13.0775C27.6995 12.8092 27.5928 12.4506 27.5928 12.0044C27.5928 11.4905 27.7871 11.0612 28.1783 10.7167C28.5696 10.3722 29.0648 10.2 29.6667 10.2C30.1318 10.2 30.5504 10.296 30.9253 10.4908V11.4933C30.5422 11.1968 30.0963 11.0499 29.5901 11.0499C29.2782 11.0499 29.0292 11.1318 28.8404 11.2928C28.6517 11.4538 28.5559 11.6627 28.5559 11.9197C28.5559 12.1964 28.6298 12.4054 28.7748 12.5551C28.9198 12.7019 29.2207 12.877 29.6776 13.0803C30.2385 13.3317 30.6298 13.5943 30.8569 13.871C31.0894 14.1421 31.2016 14.4895 31.2016 14.9074Z" fill="white"/>
<path d="M36.6704 13.4727C36.6704 12.6905 36.5063 12.0919 36.178 11.6739C35.8496 11.256 35.3818 11.047 34.7717 11.047C34.167 11.047 33.6855 11.2616 33.3325 11.688C32.9796 12.1144 32.8045 12.7188 32.8045 13.4953C32.8045 14.2408 32.9823 14.8226 33.3353 15.2405C33.6909 15.6584 34.167 15.8702 34.7717 15.8702C35.3845 15.8702 35.8551 15.6641 36.1807 15.2518C36.5063 14.8395 36.6704 14.2465 36.6704 13.4727ZM37.6362 13.436C37.6362 14.4244 37.3708 15.2179 36.8401 15.8194C36.3093 16.4209 35.5979 16.7202 34.7033 16.7202C33.8332 16.7202 33.1383 16.4265 32.6184 15.842C32.0986 15.2574 31.8387 14.4865 31.8387 13.532C31.8387 12.5041 32.1041 11.6909 32.6376 11.0922C33.1711 10.4964 33.9044 10.197 34.8401 10.197C35.7156 10.197 36.3996 10.4851 36.892 11.0611C37.39 11.6429 37.6362 12.4335 37.6362 13.436Z" fill="white"/>
<path d="M41.5018 8.23724C41.3184 8.12711 41.1078 8.07346 40.8752 8.07346C40.2158 8.07346 39.8848 8.51399 39.8848 9.39222V10.3523H41.2665V11.1967H39.8848V16.5706H38.9409V11.1967H37.9395V10.3523H38.9409V9.34421C38.9409 8.71166 39.116 8.20335 39.4689 7.81366C39.8219 7.42396 40.2706 7.23193 40.815 7.23193C41.1023 7.23193 41.3294 7.26865 41.499 7.34207V8.23724" fill="white"/>
<path d="M44.9281 16.5085C44.701 16.6412 44.4055 16.709 44.0416 16.709C43.0129 16.709 42.5013 16.099 42.5013 14.8735V11.1939H41.489V10.3496H42.5013V8.83034L43.4452 8.50842V10.3496H44.9281V11.1939H43.4452V14.704C43.4452 15.122 43.5108 15.4185 43.6476 15.5936C43.7817 15.7687 44.006 15.859 44.3207 15.859C44.5532 15.859 44.7584 15.7912 44.9308 15.6585V16.5085" fill="white"/>
<path d="M52.5012 10.5162C52.5012 9.36118 51.8582 8.7851 50.5696 8.7851H49.4369V12.3573H50.4492C51.1113 12.3573 51.6202 12.1992 51.9731 11.8801C52.3233 11.561 52.5012 11.1063 52.5012 10.5162ZM53.5135 10.4597C53.5135 11.3012 53.2372 11.9818 52.6872 12.4985C52.1373 13.0153 51.415 13.2723 50.5231 13.2723H49.4369V16.5706H48.4711V7.86169H50.7365C51.6174 7.86169 52.3014 8.09043 52.7857 8.54508C53.27 8.99973 53.5135 9.63793 53.5135 10.4597Z" fill="white"/>
<path d="M57.4914 13.4248L56.066 13.6366C55.579 13.71 55.237 13.8315 55.0427 14.0037C54.8485 14.176 54.75 14.4555 54.75 14.8396C54.75 15.1502 54.8539 15.4015 55.0674 15.5907C55.278 15.7799 55.5489 15.8731 55.8772 15.8731C56.3451 15.8731 56.7308 15.6981 57.0373 15.3507C57.341 15.0034 57.4942 14.5685 57.4942 14.0461V13.4248H57.4914ZM58.4353 16.5706H57.4914V15.5992H57.4695C57.0592 16.3475 56.4545 16.7231 55.6583 16.7231C55.092 16.7231 54.6378 16.5593 54.2958 16.2346C53.9538 15.9098 53.7842 15.4693 53.7842 14.9187C53.7842 13.7609 54.4326 13.0831 55.7295 12.8911L57.4942 12.6313C57.4942 11.578 57.0893 11.0527 56.2794 11.0527C55.5708 11.0527 54.9306 11.3069 54.3587 11.8124V10.793C54.5311 10.6546 54.8266 10.5219 55.2452 10.3948C55.6638 10.2677 56.0359 10.2028 56.3615 10.2028C57.7459 10.2028 58.4381 10.9793 58.4381 12.5296V16.5706" fill="white"/>
<path d="M62.9901 11.3606C62.8205 11.2278 62.5825 11.1601 62.2705 11.1601C61.8519 11.1601 61.5127 11.369 61.2528 11.7813C60.9928 12.1964 60.8615 12.7358 60.8615 13.3994V16.5706H59.9176V10.3524H60.8615V11.6345H60.8834C61.0147 11.2052 61.2145 10.8664 61.4881 10.6179C61.7589 10.3694 62.0736 10.2451 62.4265 10.2451C62.6727 10.2451 62.8588 10.2734 62.9901 10.3298V11.3606Z" fill="white"/>
<path d="M67.3847 16.5085C67.1576 16.6412 66.8621 16.709 66.4982 16.709C65.4695 16.709 64.9579 16.099 64.9579 14.8735V11.1939H63.9456V10.3496H64.9579V8.83034L65.9018 8.50842V10.3496H67.3847V11.1939H65.9018V14.704C65.9018 15.122 65.9702 15.4185 66.1042 15.5936C66.2383 15.7687 66.4627 15.859 66.7773 15.859C67.0099 15.859 67.2151 15.7912 67.3874 15.6585V16.5085" fill="white"/>
<path d="M73.5926 16.5706H72.6487V13.0238C72.6487 11.7079 72.1917 11.0499 71.2807 11.0499C70.8156 11.0499 70.427 11.2363 70.1151 11.6062C69.8032 11.9762 69.6473 12.4506 69.6473 13.0238V16.5706H68.7034V10.3524H69.6473V11.386H69.6692C70.1097 10.5953 70.7554 10.2028 71.6008 10.2028C72.2492 10.2028 72.7417 10.4258 73.0809 10.872C73.4202 11.3182 73.5898 11.9479 73.5898 12.7669V16.5706" fill="white"/>
<path d="M78.7961 12.8657C78.7879 12.2896 78.6566 11.8434 78.4021 11.5272C78.1477 11.2081 77.7865 11.0499 77.3241 11.0499C76.8864 11.0499 76.5143 11.2165 76.2024 11.5469C75.8932 11.8801 75.6962 12.3179 75.6142 12.8657H78.7961ZM79.7619 13.71H75.6032C75.6196 14.4104 75.7947 14.9469 76.1285 15.3168C76.465 15.6868 76.9274 15.8731 77.5239 15.8731C78.1914 15.8731 78.7988 15.6472 79.346 15.1926V16.1216C78.8317 16.5226 78.1504 16.7231 77.2995 16.7231C76.4596 16.7231 75.8029 16.4379 75.3323 15.8647C74.8618 15.2914 74.6265 14.4979 74.6265 13.4869C74.6265 12.8713 74.7441 12.3094 74.9794 11.8011C75.2147 11.2928 75.5403 10.9003 75.9534 10.6207C76.3665 10.3411 76.8289 10.2028 77.3323 10.2028C78.0957 10.2028 78.6921 10.4654 79.1189 10.9906C79.5458 11.5159 79.7592 12.2501 79.7592 13.1933V13.71" fill="white"/>
<path d="M83.9207 11.3606C83.7511 11.2278 83.5131 11.1601 83.2012 11.1601C82.7826 11.1601 82.4433 11.369 82.1834 11.7813C81.9235 12.1964 81.7922 12.7358 81.7922 13.3994V16.5706H80.8482V10.3524H81.7922V11.6345H81.814C81.9454 11.2052 82.1451 10.8664 82.4187 10.6179C82.6923 10.3694 83.0042 10.2451 83.3571 10.2451C83.6034 10.2451 83.7894 10.2734 83.9207 10.3298V11.3606Z" fill="white"/>
<path d="M64.397 27.324L64.2165 27.8605H64.2055C64.1727 27.7335 64.118 27.5556 64.0332 27.3297L63.0619 24.7571H62.1125V28.8489H62.739V26.3328C62.739 26.1775 62.7363 25.9911 62.7308 25.7765C62.7281 25.6692 62.7171 25.5817 62.7144 25.5139H62.7281C62.7609 25.6692 62.7937 25.785 62.8156 25.8641L63.9812 28.8489H64.4189L65.5762 25.8358C65.6036 25.768 65.631 25.6325 65.6556 25.5139H65.6693C65.6528 25.8132 65.6419 26.0843 65.6392 26.2481V28.8489H66.3068V24.7571H65.3957L64.397 27.324Z" fill="white"/>
<path d="M66.9334 28.8489H67.5873V26.635V25.9149H66.9334V27.7137V28.8489Z" fill="white"/>
<path d="M67.267 24.6696C67.1603 24.6696 67.0646 24.7091 66.9879 24.7853C66.9113 24.8616 66.8703 24.9576 66.8703 25.0734C66.8703 25.1863 66.9086 25.2795 66.9852 25.3558C67.0618 25.4292 67.1548 25.4687 67.2643 25.4687C67.3737 25.4687 67.4695 25.432 67.5461 25.3558C67.6227 25.2795 67.6637 25.1863 67.6637 25.0734C67.6637 24.9632 67.6254 24.8672 67.5488 24.7882C67.4722 24.7091 67.3819 24.6696 67.267 24.6696Z" fill="white"/>
<path d="M69.8988 25.8866C69.7729 25.8584 69.6498 25.8442 69.5349 25.8442C69.2339 25.8442 68.9685 25.912 68.7414 26.0447C68.5143 26.1775 68.3365 26.3695 68.2161 26.6123C68.0957 26.8552 68.0356 27.1376 68.0356 27.4539C68.0356 27.7306 68.0957 27.9848 68.2107 28.2107C68.3256 28.4366 68.4925 28.6117 68.7004 28.7331C68.9083 28.8545 69.1491 28.9166 69.4145 28.9166C69.7236 28.9166 69.989 28.8517 70.2024 28.7218L70.2107 28.7161V28.0836L70.1833 28.1034C70.0875 28.1768 69.9781 28.2361 69.8632 28.2784C69.7483 28.3208 69.6416 28.3434 69.5513 28.3434C69.2941 28.3434 69.0889 28.2587 68.9412 28.0921C68.7907 27.9254 68.7141 27.6911 68.7141 27.3946C68.7141 27.0981 68.7934 26.8552 68.9494 26.6801C69.1053 26.5022 69.3105 26.4118 69.5622 26.4118C69.7756 26.4118 69.9863 26.4881 70.1833 26.6406L70.2107 26.6603V25.9939L70.2024 25.9883C70.1286 25.9515 70.0273 25.9148 69.8988 25.8866Z" fill="white"/>
<path d="M72.0525 25.864C71.8884 25.864 71.7406 25.9205 71.6148 26.0306C71.5053 26.1266 71.426 26.2594 71.363 26.4231H71.3576V25.9148H70.7037V28.846H71.3576V27.3466C71.3576 27.0924 71.4123 26.8806 71.5217 26.7225C71.6284 26.5672 71.7707 26.4881 71.9431 26.4881C72.0033 26.4881 72.0689 26.4994 72.1401 26.5192C72.2112 26.5389 72.2632 26.5615 72.2933 26.5841L72.3206 26.6039V25.9092L72.3097 25.9035C72.2468 25.8781 72.162 25.864 72.0525 25.864Z" fill="white"/>
<path d="M74.3477 28.1034C74.2245 28.2671 74.0412 28.349 73.7977 28.349C73.557 28.349 73.3682 28.2643 73.2341 28.1005C73.1001 27.9339 73.0317 27.6967 73.0317 27.3946C73.0317 27.0839 73.1001 26.8411 73.2341 26.6716C73.3682 26.5022 73.5542 26.4175 73.7923 26.4175C74.0221 26.4175 74.2054 26.4994 74.334 26.6603C74.4653 26.8213 74.531 27.0642 74.531 27.3776C74.5337 27.6939 74.4708 27.9396 74.3477 28.1034ZM73.8278 25.8442C73.3709 25.8442 73.007 25.9854 72.7471 26.265C72.4872 26.5446 72.3559 26.9314 72.3559 27.4143C72.3559 27.8746 72.4845 28.2417 72.7362 28.5128C72.9906 28.7811 73.3326 28.9195 73.7594 28.9195C74.2027 28.9195 74.5611 28.7754 74.8182 28.4931C75.0782 28.2107 75.2095 27.8266 75.2095 27.355C75.2095 26.8891 75.0864 26.5163 74.8429 26.2481C74.5994 25.9798 74.2574 25.8442 73.8278 25.8442Z" fill="white"/>
<path d="M76.6598 27.1263C76.4546 27.0388 76.3233 26.9653 76.2686 26.9117C76.2166 26.858 76.1892 26.7818 76.1892 26.6858C76.1892 26.6011 76.222 26.5333 76.2904 26.4768C76.3588 26.4203 76.4519 26.3921 76.5723 26.3921C76.6817 26.3921 76.7939 26.409 76.9088 26.4457C77.021 26.4825 77.1195 26.5305 77.2015 26.5898L77.2289 26.6095V25.9713L77.218 25.9657C77.1413 25.9318 77.0428 25.9007 76.9197 25.8781C76.7993 25.8555 76.6899 25.8414 76.5941 25.8414C76.2822 25.8414 76.0251 25.9261 75.8281 26.0928C75.6311 26.2594 75.5298 26.4796 75.5298 26.7422C75.5298 26.8806 75.5517 27.002 75.5955 27.1065C75.6393 27.211 75.7049 27.3014 75.7925 27.3804C75.88 27.4567 76.0141 27.5358 76.1947 27.6177C76.3452 27.6826 76.4573 27.7391 76.5285 27.7814C76.5996 27.8238 76.6489 27.8662 76.6762 27.9085C76.7036 27.9509 76.7173 28.0045 76.7173 28.0751C76.7173 28.2728 76.5777 28.3688 76.2904 28.3688C76.1837 28.3688 76.0634 28.3462 75.9293 28.2982C75.7952 28.253 75.6721 28.1853 75.5599 28.1005L75.5326 28.0808V28.7529L75.5435 28.7585C75.6365 28.8037 75.7542 28.8432 75.8937 28.8715C76.0333 28.9025 76.1591 28.9166 76.2686 28.9166C76.6078 28.9166 76.8787 28.8319 77.0784 28.6653C77.2781 28.4987 77.3794 28.2728 77.3794 27.9989C77.3794 27.8012 77.3247 27.6318 77.218 27.4962C77.103 27.3607 76.917 27.2364 76.6598 27.1263Z" fill="white"/>
<path d="M79.6471 28.1034C79.524 28.2671 79.3407 28.349 79.0972 28.349C78.8564 28.349 78.6676 28.2643 78.5336 28.1005C78.3995 27.9339 78.3311 27.6967 78.3311 27.3946C78.3311 27.0839 78.3995 26.8411 78.5336 26.6716C78.6676 26.5022 78.8537 26.4175 79.0917 26.4175C79.3215 26.4175 79.5048 26.4994 79.6334 26.6603C79.7647 26.8213 79.8304 27.0642 79.8304 27.3776C79.8331 27.6939 79.7702 27.9396 79.6471 28.1034ZM79.1273 25.8442C78.6704 25.8442 78.3065 25.9854 78.0466 26.265C77.7866 26.5446 77.6553 26.9314 77.6553 27.4143C77.6553 27.8746 77.7839 28.2417 78.0356 28.5128C78.2873 28.7811 78.6321 28.9195 79.0589 28.9195C79.5021 28.9195 79.8605 28.7754 80.1177 28.4931C80.3776 28.2107 80.5089 27.8266 80.5089 27.355C80.5089 26.8891 80.3858 26.5163 80.1423 26.2481C79.9016 25.9798 79.5595 25.8442 79.1273 25.8442Z" fill="white"/>
<path d="M83.9946 26.4797V25.9177H83.3324V25.0423L83.3106 25.0508L82.6895 25.2513L82.6785 25.2541V25.9177H81.6991V25.5478C81.6991 25.3755 81.7346 25.2456 81.8085 25.1581C81.8796 25.0706 81.9809 25.0282 82.1122 25.0282C82.2052 25.0282 82.3037 25.0508 82.3995 25.096L82.4241 25.1073V24.5142L82.4132 24.5086C82.3229 24.4747 82.1998 24.4578 82.0465 24.4578C81.8523 24.4578 81.6772 24.5029 81.524 24.5905C81.3707 24.678 81.2504 24.8051 81.1656 24.9632C81.0807 25.1214 81.0397 25.3078 81.0397 25.5111V25.9177H80.58V26.4797H81.0397V28.8489H81.7018V26.4797H82.6813V27.9848C82.6813 28.6061 82.9576 28.9195 83.5048 28.9195C83.5951 28.9195 83.6881 28.9082 83.7866 28.8856C83.8851 28.863 83.9508 28.8404 83.9918 28.8179L84 28.8122V28.2446L83.9727 28.2644C83.9371 28.2898 83.8933 28.3096 83.8386 28.3265C83.7866 28.3434 83.7428 28.3491 83.7073 28.3491C83.5787 28.3491 83.4857 28.3124 83.4255 28.2418C83.3653 28.1684 83.3352 28.0413 83.3352 27.8662V26.4825H83.9946" fill="white"/>
<path d="M56.7768 26.6349H53.7043V23.3903H56.7768V26.6349Z" fill="white"/>
<path d="M60.1695 26.6349H57.097V23.3903H60.1695V26.6349Z" fill="white"/>
<path d="M56.7768 30.2185H53.7043V26.9739H56.7768V30.2185Z" fill="white"/>
<path d="M60.1695 30.2185H57.097V26.9739H60.1695V30.2185Z" fill="white"/>
<path d="M3.35431 4.30933C2.94118 4.55783 2.4788 4.68208 1.97265 4.68208C1.58687 4.68208 1.24487 4.58889 0.941179 4.40534C0.640221 4.22179 0.407661 3.96198 0.243502 3.62594C0.0793433 3.2899 0 2.9115 0 2.48791C0 1.81865 0.199726 1.26798 0.601915 0.833105C1.00137 0.398225 1.51574 0.180786 2.13954 0.180786C2.58824 0.180786 2.9658 0.257033 3.2695 0.412348V0.977127C2.93571 0.751215 2.54173 0.641082 2.08482 0.641082C1.78386 0.641082 1.513 0.717327 1.27223 0.869817C1.03146 1.02231 0.842682 1.23975 0.708618 1.51932C0.574555 1.79888 0.506158 2.10951 0.506158 2.4512C0.506158 2.99904 0.642958 3.43109 0.916556 3.75019C1.19015 4.06647 1.56224 4.22461 2.03283 4.22461C2.35294 4.22461 2.63202 4.15683 2.87005 4.01846V2.80136H1.96717V2.34107H3.35431V4.30933Z" fill="white"/>
<path d="M6.58517 3.05827C6.58517 2.66857 6.50308 2.36924 6.33893 2.16027C6.17477 1.9513 5.93947 1.84682 5.63578 1.84682C5.33209 1.84682 5.09405 1.95412 4.91622 2.16591C4.74111 2.38053 4.65082 2.67987 4.65082 3.06956C4.65082 3.44232 4.73838 3.73318 4.91622 3.94215C5.09405 4.15111 5.33208 4.2556 5.63304 4.2556C5.93947 4.2556 6.17477 4.15112 6.33893 3.94497C6.50308 3.74165 6.58517 3.44514 6.58517 3.05827ZM7.06943 3.03851C7.06943 3.53269 6.93811 3.93085 6.66998 4.23018C6.40459 4.52951 6.04891 4.68201 5.60295 4.68201C5.16792 4.68201 4.82045 4.53517 4.56054 4.24431C4.30062 3.95062 4.17203 3.56657 4.17203 3.08933C4.17203 2.57538 4.30609 2.16874 4.57148 1.86941C4.83687 1.57008 5.20623 1.42041 5.67408 1.42041C6.11184 1.42041 6.45384 1.56443 6.70008 1.85247C6.94632 2.14333 7.06943 2.53868 7.06943 3.03851Z" fill="white"/>
<path d="M8.41923 4.60575H7.94864V0.00280762H8.41923V4.60575Z" fill="white"/>
<path d="M11.5404 3.19947V2.742C11.5404 2.48503 11.4583 2.27041 11.2969 2.10098C11.1355 1.93154 10.9385 1.84683 10.7059 1.84683C10.4214 1.84683 10.197 1.95696 10.0301 2.18005C9.86323 2.40031 9.78114 2.70811 9.78114 3.10063C9.78114 3.45644 9.86049 3.73884 10.0164 3.94498C10.1724 4.15395 10.3858 4.25561 10.6512 4.25561C10.9111 4.25561 11.1218 4.15677 11.2887 3.9591C11.4556 3.76143 11.5404 3.50727 11.5404 3.19947ZM12.011 4.60577H11.5404V4.0777H11.5294C11.3106 4.48152 10.974 4.68201 10.5171 4.68201C10.145 4.68201 9.84955 4.54082 9.62793 4.25843C9.40632 3.97604 9.29688 3.59764 9.29688 3.12605C9.29688 2.6121 9.42 2.19981 9.6635 1.88636C9.907 1.57573 10.2353 1.41759 10.6457 1.41759C11.0479 1.41759 11.3434 1.58703 11.5294 1.92307H11.5404V0H12.011V4.60577Z" fill="white"/>
</svg>
