<svg width="38" height="38" viewBox="0 0 38 38" fill="none" xmlns="http://www.w3.org/2000/svg">
<path d="M36.8114 34.1415L26.7218 24.0447C28.6817 21.5795 29.8533 18.4768 29.8533 15.099C29.8533 7.11238 23.3003 0.625 15.2465 0.625C7.19302 0.625 0.625 7.1195 0.625 15.1064C0.625 23.093 7.17801 29.5803 15.2318 29.5803C18.5342 29.5803 21.5833 28.4872 24.0377 26.6486L34.1711 36.7819C34.9225 37.5333 36.06 37.5333 36.8114 36.7819C37.5628 36.0305 37.5629 34.8931 36.8115 34.1416C36.8115 34.1416 36.8115 34.1416 36.8114 34.1415ZM4.3999 15.1064C4.3999 9.209 9.25929 4.40728 15.2318 4.40728C21.2043 4.40728 26.0637 9.209 26.0637 15.1064C26.0637 21.0037 21.2043 25.8054 15.2318 25.8054C9.25946 25.8054 4.3999 20.9965 4.3999 15.1064Z" fill="#454545" stroke="#454545" stroke-width="0.75"/>
</svg>
