<svg width="48" height="34" viewBox="0 0 48 34" fill="none" xmlns="http://www.w3.org/2000/svg">
<g style="mix-blend-mode:hard-light" filter="url(#filter0_i)">
<path d="M14.6053 31.0217L28.996 1.28803C29.5177 0.210091 30.9284 -0.289606 32.1469 0.17192C33.2784 0.60048 33.8462 1.70716 33.5039 2.72612L33.4086 2.95936L19.0178 32.6931C18.4961 33.771 17.0854 34.2707 15.8669 33.8092C14.7354 33.3806 14.1676 32.2739 14.5099 31.255L14.6053 31.0217L28.996 1.28803L14.6053 31.0217ZM0.702944 15.4844L10.3029 6.99185C11.2402 6.16271 12.7598 6.16271 13.6971 6.99185C14.5622 7.75721 14.6288 8.96153 13.8967 9.79442L13.6971 9.99443L5.79411 16.9857L13.6971 23.977C14.6343 24.8062 14.6343 26.1505 13.6971 26.9796C12.8319 27.745 11.4705 27.8039 10.529 27.1562L10.3029 26.9796L0.702944 18.487C-0.162218 17.7217 -0.228769 16.5174 0.503291 15.6845L0.702944 15.4844L10.3029 6.99185L0.702944 15.4844ZM34.301 6.98922C35.1662 6.22389 36.5276 6.16507 37.469 6.81273L37.6951 6.98936L47.2971 15.4845C48.1626 16.2502 48.2288 17.4552 47.4958 18.288L47.2959 18.488L37.6939 26.9711C36.756 27.7997 35.2364 27.7988 34.2998 26.9691C33.4352 26.2033 33.3696 24.9989 34.1023 24.1665L34.3021 23.9666L42.2048 16.9847L34.3008 9.99181C33.3636 9.16263 33.3637 7.81832 34.301 6.98922Z" fill="#454545"/>
</g>
<defs>
<filter id="filter0_i" x="0" y="-3" width="52" height="36.9811" filterUnits="userSpaceOnUse" color-interpolation-filters="sRGB">
<feFlood flood-opacity="0" result="BackgroundImageFix"/>
<feBlend mode="normal" in="SourceGraphic" in2="BackgroundImageFix" result="shape"/>
<feColorMatrix in="SourceAlpha" type="matrix" values="0 0 0 0 0 0 0 0 0 0 0 0 0 0 0 0 0 0 127 0" result="hardAlpha"/>
<feOffset dx="4" dy="-3"/>
<feGaussianBlur stdDeviation="3"/>
<feComposite in2="hardAlpha" operator="arithmetic" k2="-1" k3="1"/>
<feColorMatrix type="matrix" values="0 0 0 0 0.204167 0 0 0 0 0.204167 0 0 0 0 0.204167 0 0 0 1 0"/>
<feBlend mode="normal" in2="shape" result="effect1_innerShadow"/>
</filter>
</defs>
</svg>
