<svg width="48" height="45" viewBox="0 0 48 45" fill="none" xmlns="http://www.w3.org/2000/svg">
<path d="M3.39319 19.6812C3.39085 19.681 3.38096 19.6796 3.34837 19.6731L3.34202 19.6718C3.29746 19.6628 3.21138 19.6455 3.10743 19.6455C1.64706 19.6455 0.5 20.8393 0.5 22.2529C0.5 23.7133 1.69381 24.8604 3.10743 24.8604H3.10785H3.10827H3.10869H3.10911H3.10953H3.10995H3.11036H3.11078H3.1112H3.11162H3.11204H3.11246H3.11288H3.11329H3.11371H3.11413H3.11455H3.11497H3.11539H3.11581H3.11623H3.11664H3.11706H3.11748H3.1179H3.11832H3.11874H3.11916H3.11957H3.11999H3.12041H3.12083H3.12125H3.12167H3.12209H3.1225H3.12292H3.12334H3.12376H3.12418H3.1246H3.12502H3.12543H3.12585H3.12627H3.12669H3.12711H3.12753H3.12795H3.12836H3.12878H3.1292H3.12962H3.13004H3.13046H3.13088H3.13129H3.13171H3.13213H3.13255H3.13297H3.13339H3.13381H3.13422H3.13464H3.13506H3.13548H3.1359H3.13632H3.13674H3.13715H3.13757H3.13799H3.13841H3.13883H3.13925H3.13967H3.14008H3.1405H3.14092H3.14134H3.14176H3.14218H3.1426H3.14301H3.14343H3.14385H3.14427H3.14469H3.14511H3.14553H3.14594H3.14636H3.14678H3.1472H3.14762H3.14804H3.14846H3.14887H3.14929H3.14971H3.15013H3.15055H3.15097H3.15139H3.1518H3.15222H3.15264H3.15306H3.15348H3.1539H3.15432H3.15473H3.15515H3.15557H3.15599H3.15641H3.15683H3.15725H3.15766H3.15808H3.1585H3.15892H3.15934H3.15976H3.16018H3.16059H3.16101H3.16143H3.16185H3.16227H3.16269H3.16311H3.16353H3.16394H3.16436H3.16478H3.1652H3.16562H3.16604H3.16646H3.16687H3.16729H3.16771H3.16813H3.16855H3.16897H3.16939H3.1698H3.17022H3.17064H3.17106H3.17148H3.1719H3.17232H3.17273H3.17315H3.17357H3.17399H3.17441H3.17483H3.17525H3.17566H3.17608H3.1765H3.17692H3.17734H3.17776H3.17818H3.17859H3.17901H3.17943H3.17985H3.18027H3.18069H3.18111H3.18152H3.18194H3.18236H3.18278H3.1832H3.18362H3.18404H3.18445H3.18487H3.18529H3.18571H3.18613H3.18655H3.18697H3.18738H3.1878H3.18822H3.18864H3.18906H3.18948H3.1899H3.19031H3.19073H3.19115H3.19157H3.19199H3.19241H3.19283H3.19324H3.19366H3.19408H3.1945H3.19492H3.19534H3.19576H3.19617H3.19659H3.19701H3.19743H3.19785H3.19827H3.19869H3.1991H3.19952H3.19994H3.20036H3.20078H3.2012H3.20162H3.20203H3.20245H3.20287H3.20329H3.20371H3.20413H3.20455H3.20496H3.20538H3.2058H3.20622H3.20664H3.20706H3.20748H3.2079H3.20831H3.20873H3.20915H3.20957H3.20999H3.21041H3.21082H3.21124H3.21166H3.21208H3.2125H3.21292H3.21334H3.21376H3.21417H3.21459H3.21501H3.21543H3.21585H3.21627H3.21669H3.2171H3.21752H3.21794H3.21836H3.21878H3.2192H3.21962H3.22003H3.22045H3.22087H3.22129H3.22171H3.22213H3.22255H3.22296H3.22338H3.2238H3.22422H3.22464H3.22506H3.22548H3.22589H3.22631H3.22673H3.22715H3.22757H3.22799H3.22841H3.22882H3.22924H3.22966H3.23008H3.2305H3.23092H3.23134H3.23175H3.23217H3.23259H3.23301H3.23343H3.23385H3.23427H3.23468H3.2351H3.23552H3.23594H3.23636H3.23678H3.2372H3.23761H3.23803H3.23845H3.23887H3.23929H3.23971H3.24013H3.24054H3.24096H3.24138H3.2418H3.24222H3.24264H3.24306H3.24347H3.24389H3.24431H3.24473H3.24515H3.24557H3.24599H3.2464H3.24682H3.24724H3.24766H3.24808H3.2485H3.24892H3.24933H3.24975H3.25017H3.25059H3.25101H3.25143H3.25185H3.25226H3.25268H3.2531H3.25352H3.25394H3.25436H3.25478H3.2552H3.25561H3.25603H3.25645H3.25687H3.25729H3.25771H3.25813H3.25854H3.25896H3.25938H3.2598H3.26022H3.26064H3.26106H3.26147H3.26189H3.26231H3.26273H3.26315H3.26357H3.26399H3.2644H3.26482H3.26524H3.26566H3.26608H3.2665H3.26692H3.26733H3.26775H3.26817H3.26859H3.26901H3.26943H3.26985H3.27026H3.27068H3.2711H3.27152H3.27194H3.27236H3.27278H3.27319H3.27361H3.27403H3.27445H3.27487H3.27529H3.27571H3.27612H3.27654H3.27696H3.27738H3.2778H3.27822H3.27864H3.27905H3.27947H3.27989H3.28031H3.28073H3.28115H3.28157H3.28198H3.2824H3.28282H3.28324H3.28366H3.28408H3.2845H3.28491H3.28533H3.28575H3.28617H3.28659H3.28701H3.28743H3.28784H3.28826H3.28868H3.2891H3.28952H3.28994H3.29036H3.29077H3.29119H3.29161H3.29203H3.29245H3.29287H3.29329H3.2937H3.29412H3.29454H3.29496H3.29538H3.2958H3.29622H3.29663H3.29705H3.29747H3.29789H3.29831H3.29873H3.29915H3.29957H3.29998H3.3004H3.30082H3.30124H3.30166H3.30208H3.3025H3.30291H3.30333H3.30375H3.30417H3.30459H3.30501H3.30543H3.30584H3.30626H3.30668H3.3071H3.30752H3.30794H3.30836H3.30877H3.30919H3.30961H3.31003H3.31045H3.31087H3.31129H3.3117H3.31212H3.31254H3.31296H3.31338H3.3138H3.31422H3.31463H3.31505H3.31547H3.31589H3.31631H3.31673H3.31715H3.31756H3.31798H3.3184H3.31882H3.31924H3.31966H3.32008H3.32049H3.32091H3.32133H3.32175H3.34443L3.36702 24.8583C4.30673 24.7729 5.08311 24.1928 5.45635 23.3959H12.4202C6.8263 26.5005 2.77659 32.0186 2.01333 38.6839H1.35719C1.21858 38.6839 0.991479 38.7085 0.811649 38.8884C0.631818 39.0682 0.607158 39.2953 0.607158 39.4339V43.2201C0.607158 43.2747 0.609217 43.353 0.626769 43.4344C0.645534 43.5214 0.688409 43.6424 0.793791 43.7478C0.899173 43.8532 1.02023 43.8961 1.10723 43.9148C1.1886 43.9324 1.26692 43.9344 1.32147 43.9344H5.10771H5.11101C5.19579 43.9345 5.41947 43.9345 5.60667 43.7889C5.83581 43.6107 5.85775 43.3518 5.85775 43.2201V39.4696C5.85775 39.38 5.85715 39.1577 5.71746 38.9657C5.54631 38.7303 5.28838 38.6839 5.10771 38.6839H4.41968C5.51946 30.497 12.5643 23.9335 21.0743 23.5203V24.0746C21.0743 24.2161 21.1001 24.4374 21.2668 24.6208C21.4423 24.8139 21.6765 24.8604 21.86 24.8604H25.5748C25.713 24.8604 25.9554 24.8358 26.1385 24.6324C26.3076 24.4444 26.3249 24.2117 26.3249 24.0746V23.4316H41.6476C41.8359 23.8856 42.1239 24.231 42.4949 24.4688C42.9499 24.7604 43.4827 24.8604 44.006 24.8604C45.4608 24.8604 46.6134 23.7078 46.6134 22.2529C46.6134 20.8035 45.4305 19.6098 44.006 19.6098C42.9802 19.6098 42.1233 20.2559 41.6943 21.0028H34.8963C40.4177 18.0672 44.382 12.3436 45.1358 5.75059H46.1848C46.2379 5.75059 46.3212 5.74883 46.4082 5.72837C46.5055 5.70548 46.6317 5.65355 46.7352 5.5352C46.8329 5.42364 46.8678 5.30099 46.8826 5.2202C46.8971 5.1409 46.8991 5.06182 46.8991 5.00055V1.21432C46.8991 1.08265 46.8772 0.823725 46.6481 0.645508C46.4609 0.499902 46.2372 0.499973 46.1524 0.499999L46.1491 0.5H42.5057C42.3617 0.5 42.1668 0.526939 41.9934 0.646948C41.7932 0.785601 41.6843 1.00579 41.6843 1.25003V5.00055V5.00384C41.6842 5.08863 41.6842 5.31231 41.8298 5.49952C42.008 5.72865 42.2669 5.75059 42.3986 5.75059H42.7677C41.6757 14.2311 34.6078 20.6407 26.3963 21.0563V20.3241C26.3963 20.233 26.3831 20.1182 26.3286 20.0024C26.27 19.8777 26.1776 19.7821 26.0679 19.7181C25.8848 19.6113 25.6769 19.6098 25.5748 19.6098H21.86H21.8567C21.772 19.6098 21.5483 19.6097 21.3611 19.7553C21.1319 19.9335 21.11 20.1924 21.11 20.3241V21.0028H5.4203C5.22872 20.6638 4.94834 20.3309 4.60862 20.0931L4.4795 20.0027H4.39294C4.38866 20.0001 4.38312 19.9968 4.37531 19.9922C4.35718 19.9814 4.33298 19.9674 4.30373 19.9525C4.29599 19.9473 4.2877 19.942 4.27888 19.9367C4.24644 19.9172 4.20899 19.8994 4.16665 19.8858C4.12959 19.8694 4.09386 19.8551 4.06789 19.8447L4.06109 19.842C4.01059 19.8218 3.98723 19.8121 3.97399 19.8055L3.86841 19.7527H3.80461C3.76624 19.741 3.73407 19.7339 3.7125 19.7291L3.71151 19.7289C3.70558 19.7275 3.70013 19.7263 3.69511 19.7252C3.65803 19.717 3.64349 19.7138 3.62275 19.7069L3.54577 19.6812H3.46463H3.46442H3.46421H3.464H3.4638H3.46359H3.46339H3.46318H3.46298H3.46278H3.46257H3.46237H3.46217H3.46197H3.46178H3.46158H3.46138H3.46118H3.46099H3.46079H3.4606H3.46041H3.46021H3.46002H3.45983H3.45964H3.45945H3.45926H3.45908H3.45889H3.4587H3.45852H3.45833H3.45815H3.45796H3.45778H3.4576H3.45742H3.45723H3.45705H3.45688H3.4567H3.45652H3.45634H3.45616H3.45599H3.45581H3.45564H3.45546H3.45529H3.45512H3.45495H3.45477H3.4546H3.45443H3.45426H3.4541H3.45393H3.45376H3.45359H3.45343H3.45326H3.4531H3.45293H3.45277H3.4526H3.45244H3.45228H3.45212H3.45196H3.4518H3.45164H3.45148H3.45132H3.45116H3.451H3.45085H3.45069H3.45054H3.45038H3.45023H3.45007H3.44992H3.44977H3.44962H3.44946H3.44931H3.44916H3.44901H3.44886H3.44871H3.44857H3.44842H3.44827H3.44812H3.44798H3.44783H3.44769H3.44754H3.4474H3.44725H3.44711H3.44697H3.44682H3.44668H3.44654H3.4464H3.44626H3.44612H3.44598H3.44584H3.4457H3.44557H3.44543H3.44529H3.44515H3.44502H3.44488H3.44475H3.44461H3.44448H3.44434H3.44421H3.44408H3.44395H3.44381H3.44368H3.44355H3.44342H3.44329H3.44316H3.44303H3.4429H3.44277H3.44264H3.44251H3.44238H3.44226H3.44213H3.442H3.44188H3.44175H3.44163H3.4415H3.44138H3.44125H3.44113H3.441H3.44088H3.44076H3.44063H3.44051H3.44039H3.44027H3.44015H3.44003H3.4399H3.43978H3.43966H3.43954H3.43942H3.43931H3.43919H3.43907H3.43895H3.43883H3.43871H3.4386H3.43848H3.43836H3.43825H3.43813H3.43801H3.4379H3.43778H3.43767H3.43755H3.43744H3.43732H3.43721H3.43709H3.43698H3.43687H3.43675H3.43664H3.43653H3.43642H3.4363H3.43619H3.43608H3.43597H3.43586H3.43574H3.43563H3.43552H3.43541H3.4353H3.43519H3.43508H3.43497H3.43486H3.43475H3.43464H3.43453H3.43442H3.43432H3.43421H3.4341H3.43399H3.43388H3.43377H3.43367H3.43356H3.43345H3.43334H3.43323H3.43313H3.43302H3.43291H3.43281H3.4327H3.43259H3.43249H3.43238H3.43227H3.43217H3.43206H3.43196H3.43185H3.43174H3.43164H3.43153H3.43143H3.43132H3.43122H3.43111H3.431H3.4309H3.43079H3.43069H3.43058H3.43048H3.43037H3.43027H3.43016H3.43006H3.42995H3.42985H3.42975H3.42964H3.42954H3.42943H3.42933H3.42922H3.42912H3.42901H3.42891H3.4288H3.4287H3.42859H3.42849H3.42838H3.42828H3.42817H3.42807H3.42797H3.42786H3.42776H3.42765H3.42755H3.42744H3.42734H3.42723H3.42713H3.42702H3.42692H3.42681H3.42671H3.4266H3.42649H3.42639H3.42628H3.42618H3.42607H3.42597H3.42586H3.42575H3.42565H3.42554H3.42544H3.42533H3.42522H3.42512H3.42501H3.4249H3.42479H3.42469H3.42458H3.42447H3.42437H3.42426H3.42415H3.42404H3.42393H3.42383H3.42372H3.42361H3.4235H3.42339H3.42328H3.42317H3.42306H3.42295H3.42284H3.42273H3.42262H3.42251H3.4224H3.42229H3.42218H3.42207H3.42196H3.42185H3.42174H3.42162H3.42151H3.4214H3.42129H3.42117H3.42106H3.42095H3.42083H3.42072H3.42061H3.42049H3.42038H3.42026H3.42015H3.42003H3.41992H3.4198H3.41969H3.41957H3.41945H3.41934H3.41922H3.4191H3.41898H3.41887H3.41875H3.41863H3.41851H3.41839H3.41827H3.41815H3.41803H3.41791H3.41779H3.41767H3.41755H3.41743H3.4173H3.41718H3.41706H3.41694H3.41681H3.41669H3.41656H3.41644H3.41631H3.41619H3.41606H3.41594H3.41581H3.41568H3.41556H3.41543H3.4153H3.41517H3.41505H3.41492H3.41479H3.41466H3.41453H3.4144H3.41427H3.41413H3.414H3.41387H3.41374H3.4136H3.41347H3.41334H3.4132H3.41307H3.41293H3.4128H3.41266H3.41252H3.41239H3.41225H3.41211H3.41197H3.41183H3.41169H3.41155H3.41141H3.41127H3.41113H3.41099H3.41085H3.41071H3.41056H3.41042H3.41027H3.41013H3.40998H3.40984H3.40969H3.40955H3.4094H3.40925H3.4091H3.40895H3.4088H3.40865H3.4085H3.40835H3.4082H3.40805H3.4079H3.40774H3.40759H3.40743H3.40728H3.40712H3.40697H3.40681H3.40665H3.4065H3.40634H3.40618H3.40602H3.40586H3.4057H3.40554H3.40537H3.40521H3.40505H3.40488H3.40472H3.40456H3.40439H3.40422H3.40406H3.40389H3.40372H3.40355H3.40338H3.40321H3.40304H3.40287H3.4027H3.40252H3.40235H3.40218H3.402H3.40183H3.40165H3.40147H3.4013H3.40112H3.40094H3.40076H3.40058H3.4004H3.40022H3.40004H3.39985H3.39967H3.39948H3.3993H3.39911H3.39893H3.39874H3.39855H3.39836H3.39817H3.39798H3.39779H3.3976H3.39741H3.39722H3.39702H3.39683H3.39663H3.39643H3.39624H3.39604H3.39584H3.39564H3.39544H3.39524H3.39504H3.39484H3.39463H3.39443H3.39422H3.39402H3.39381H3.39361H3.3934H3.39319ZM3.39319 19.6812C3.39374 19.6813 3.39387 19.6813 3.39378 19.6813C3.39371 19.6813 3.39347 19.6812 3.39319 19.6812Z" fill="#454545" stroke="#454545"/>
</svg>
